<svg xmlns="http://www.w3.org/2000/svg" width="545" height="545" viewBox="0 0 545 545" version="1.1">
	<path d="M 257 6.090 C 257 11.199, 256.638 12.472, 254.750 13.999 C 252.604 15.735, 252.485 16.595, 252.180 32.644 C 251.960 44.165, 251.487 49.705, 250.680 50.219 C 250.031 50.632, 243.771 50.976, 236.769 50.985 L 224.038 51 223.411 53.500 C 223.066 54.875, 222.719 56.028, 222.642 56.063 C 222.564 56.098, 217.661 56.464, 211.747 56.876 C 202.863 57.496, 200.751 57.958, 199.599 59.533 C 198.373 61.210, 196.894 61.436, 187.353 61.410 C 176.607 61.381, 176.468 61.350, 173.250 58.289 C 171.463 56.589, 170 54.494, 170 53.634 C 170 52.774, 169.100 51.589, 168 51 C 166.886 50.404, 166 48.906, 166 47.620 C 166 46.349, 165.100 44.495, 164 43.500 C 162.900 42.505, 162 40.426, 162 38.880 C 162 37.094, 161.272 35.680, 160 35 C 158.762 34.337, 157.994 32.895, 157.985 31.215 C 157.967 28.006, 157.134 26.588, 154.750 25.708 C 153.530 25.258, 153 23.980, 153 21.484 C 153 19.011, 152.270 17.224, 150.639 15.702 C 149.340 14.491, 147.960 12.488, 147.572 11.250 C 147.183 10.013, 146.319 9, 145.652 9 C 144.984 9, 143.904 7.583, 143.250 5.852 C 142.241 3.179, 141.831 2.895, 140.531 3.974 C 138.728 5.471, 138.277 20, 140.033 20 C 142.075 20, 148 26.940, 148 29.332 C 148 30.651, 148.872 32.839, 149.938 34.194 C 151.004 35.549, 152.164 37.803, 152.515 39.203 C 152.866 40.604, 154.244 42.246, 155.577 42.853 C 157.334 43.654, 158 44.758, 158 46.872 C 158 48.540, 158.641 50.032, 159.500 50.362 C 160.325 50.678, 161 51.836, 161 52.933 C 161 54.031, 161.870 55.395, 162.932 55.964 C 163.995 56.533, 165.141 57.870, 165.480 58.936 C 165.818 60.001, 167.086 61.014, 168.297 61.187 C 170.120 61.446, 170.554 62.245, 170.811 65.824 C 171.203 71.270, 169.917 72.815, 164.672 73.196 C 161.509 73.427, 160.268 74.029, 159.539 75.688 C 158.539 77.967, 156.259 78.963, 151.987 78.986 C 150.348 78.995, 149.131 79.783, 148.487 81.250 C 147.805 82.805, 146.480 83.598, 144.198 83.817 C 141.847 84.043, 140.576 84.835, 139.787 86.567 C 139.178 87.905, 137.822 89, 136.774 89 C 133.558 89, 131.193 90.845, 130.528 93.872 C 129.994 96.304, 129.271 96.861, 125.964 97.390 C 122.736 97.906, 121.916 98.508, 121.376 100.759 C 121.014 102.267, 119.882 104.305, 118.859 105.289 C 117.837 106.273, 117 107.510, 117 108.039 C 117 108.568, 114.284 109, 110.964 109 L 104.927 109 97.403 101.500 C 93.265 97.375, 89.456 94, 88.939 94 C 88.423 94, 88 93.482, 88 92.850 C 88 90.880, 78.905 83, 76.632 83 C 75.353 83, 74.072 82.083, 73.487 80.750 C 72.762 79.096, 71.506 78.418, 68.750 78.190 C 65.518 77.922, 65 78.167, 65 79.961 C 65 81.211, 65.999 82.498, 67.500 83.182 C 68.875 83.808, 70 84.935, 70 85.685 C 70 86.436, 71.063 87.454, 72.363 87.948 C 73.663 88.442, 74.980 89.814, 75.289 90.997 C 75.598 92.181, 76.819 93.402, 78.003 93.711 C 79.186 94.020, 80.558 95.337, 81.052 96.637 C 81.672 98.267, 82.740 99, 84.497 99 C 86.242 99, 87.401 99.786, 88.182 101.500 C 88.808 102.875, 89.908 104, 90.625 104 C 91.343 104, 92.423 104.922, 93.026 106.048 C 93.628 107.174, 95.219 108.513, 96.561 109.023 C 97.902 109.533, 99 110.626, 99 111.452 C 99 112.278, 100.125 113.691, 101.500 114.592 C 104.595 116.620, 104.665 118.589, 101.750 121.576 C 100.512 122.844, 98.263 125.151, 96.750 126.702 C 95.238 128.253, 94 130.497, 94 131.689 C 94 133.841, 92.046 136.485, 89.937 137.188 C 89.333 137.389, 88.522 139.100, 88.136 140.990 C 87.616 143.532, 86.792 144.575, 84.967 145.002 C 83.004 145.461, 82.447 146.286, 82.240 149.039 C 81.614 157.376, 81.014 159, 78.562 159 C 75.641 159, 75 160.616, 75 167.973 C 75 173.337, 74.808 173.831, 72.500 174.411 C 70.116 175.009, 70 175.381, 70 182.404 C 70 189.158, 69.792 189.906, 67.500 191.408 C 66.125 192.309, 65 193.688, 65 194.473 C 65 195.258, 64.261 196.314, 63.358 196.820 C 61.476 197.873, 58 197.227, 58 195.824 C 58 195.305, 56.330 192.883, 54.288 190.440 C 51.299 186.865, 49.946 186, 47.338 186 C 45.557 186, 43.740 185.391, 43.300 184.646 C 42.217 182.812, 38.597 181, 36.018 181 C 34.856 181, 32.862 179.875, 31.588 178.500 C 28.549 175.221, 22 174.880, 22 178 C 22 179.126, 22.667 180, 23.525 180 C 24.363 180, 25.454 181.064, 25.948 182.364 C 26.989 185.101, 28.849 186, 33.473 186 C 36.146 186, 36.901 186.469, 37.394 188.433 C 37.730 189.772, 38.875 191.143, 39.938 191.480 C 41.001 191.818, 42.014 192.837, 42.189 193.744 C 42.398 194.828, 44.220 195.756, 47.503 196.451 C 51.439 197.283, 52.565 197.963, 52.806 199.652 C 53.136 201.959, 55.530 202.964, 60.750 202.986 C 63.691 202.999, 64 203.285, 64 206 C 64 208.222, 63.533 209, 62.200 209 C 58.150 209, 58 210.199, 58 242.500 C 58 265.356, 57.682 273.918, 56.800 274.800 C 55.339 276.261, 37.859 276.459, 36.430 275.030 C 35.896 274.496, 32.555 273.858, 29.005 273.611 C 24.020 273.264, 22.165 272.687, 20.864 271.081 C 18.967 268.738, 17 268.340, 17 270.300 C 17 272.114, 19.079 274, 21.078 274 C 22 274, 23.315 274.675, 24 275.500 C 24.685 276.325, 26.427 277.012, 27.872 277.028 C 29.699 277.047, 31.262 278.105, 33 280.500 L 35.500 283.945 45.168 283.972 C 50.486 283.988, 55.548 284.273, 56.418 284.607 C 57.756 285.120, 58.002 287.392, 58.015 299.357 C 58.024 307.136, 58.361 314.017, 58.765 314.649 C 59.169 315.281, 60.625 315.956, 62 316.149 C 63.901 316.416, 64.500 317.095, 64.500 318.983 C 64.500 321.095, 63.902 321.572, 60.500 322.175 C 58.300 322.566, 54.830 322.911, 52.789 322.942 C 50.665 322.975, 48.528 323.680, 47.789 324.590 C 47.080 325.465, 44.475 328.233, 42 330.742 L 37.500 335.304 37.164 351.066 C 36.849 365.817, 36.958 366.958, 38.858 368.858 C 39.975 369.975, 41.186 372.473, 41.549 374.410 C 41.970 376.653, 42.919 378.157, 44.162 378.551 C 45.236 378.892, 46.528 380.258, 47.033 381.586 C 47.579 383.022, 48.757 384, 49.941 384 C 51.576 384, 52.050 384.899, 52.599 389.036 C 53.074 392.615, 53.850 394.384, 55.279 395.149 C 61.310 398.377, 63.722 405.081, 60 408.268 C 58.871 409.234, 58 411.218, 58 412.821 C 58 414.828, 57.266 416.055, 55.500 417 C 54.125 417.736, 53 418.928, 53 419.650 C 53 420.372, 51.865 421.247, 50.477 421.595 C 49.089 421.944, 47.401 423.013, 46.727 423.971 C 46.052 424.929, 44.375 426.058, 43 426.479 C 38.732 427.786, 38 428.993, 38 434.722 C 38 439.916, 37.768 440.417, 33.500 444.449 L 29 448.699 29 457.989 C 29 465.475, 29.321 467.514, 30.653 468.488 C 32.603 469.914, 31.656 472, 29.058 472 C 26.786 472, 26.031 474.666, 26.014 482.750 C 26.002 488.265, 25.772 489, 24.059 489 C 21.311 489, 20.669 490.518, 20.047 498.482 C 19.567 504.647, 19.244 505.537, 17.394 505.801 C 15.471 506.075, 15.239 506.916, 14.729 515.465 C 14.270 523.159, 13.799 525.201, 12.085 526.915 C 10.319 528.681, 10 530.224, 10 537 L 10 545 228.500 545 C 446.333 545, 447 544.994, 447 543 C 447 541.900, 447.450 541, 448 541 C 448.550 541, 448.947 541.337, 448.882 541.750 C 448.384 544.904, 449.052 545, 471.559 545 C 486.344 545, 493.905 544.655, 493.500 544 C 493.160 543.450, 493.321 543, 493.858 543 C 494.394 543, 495.092 543.563, 495.407 544.250 C 495.723 544.938, 495.730 544.487, 495.423 543.250 C 495.027 541.651, 495.310 541, 496.402 541 C 497.531 541, 497.910 540.004, 497.830 537.250 C 497.770 535.188, 497.279 532.938, 496.738 532.250 C 496.038 531.360, 496.222 531, 497.378 531 C 498.720 531, 499 532.210, 499 538 L 499 545 504 545 L 509 545 509 535.539 C 509 527.600, 508.699 525.790, 507.129 524.289 C 505.749 522.969, 505.125 520.555, 504.750 515.075 C 504.379 509.655, 503.782 507.313, 502.537 506.403 C 498.400 503.378, 496.789 498.007, 496.246 485.429 C 495.745 473.831, 495.823 473.177, 497.956 471.044 C 499.996 469.004, 500.161 468.033, 499.846 459.983 C 499.552 452.488, 499.161 450.798, 497.250 448.765 C 496.012 447.448, 495 445.997, 495 445.541 C 495 445.084, 494.113 443.763, 493.029 442.605 C 491.945 441.447, 488.824 438.118, 486.094 435.207 C 483.364 432.295, 480.984 429.145, 480.805 428.207 C 480.626 427.268, 479.472 426.356, 478.240 426.180 C 476.647 425.953, 476 425.183, 476 423.514 C 476 422.223, 476.553 420.982, 477.229 420.757 C 478.131 420.456, 477.999 419.647, 476.729 417.709 C 474.250 413.925, 474.404 407.389, 476.988 406.713 C 478.081 406.427, 479.397 405.087, 479.911 403.733 C 480.426 402.380, 481.781 401.029, 482.923 400.730 C 484.065 400.432, 485 399.522, 485 398.709 C 485 397.895, 486.125 396.493, 487.500 395.592 C 489.989 393.961, 490 393.885, 490 378.438 L 490 362.922 486.197 359.211 C 480.738 353.884, 477.197 351.571, 473.628 351 C 471.091 350.595, 470.500 350.027, 470.500 348 C 470.500 346.211, 471.106 345.414, 472.631 345.196 C 474.447 344.937, 474.830 344.068, 475.225 339.296 C 475.527 335.662, 476.270 333.276, 477.345 332.490 C 478.741 331.469, 479.002 329.186, 479.014 317.890 C 479.030 302.279, 479.393 300.369, 482.498 299.590 C 484.754 299.024, 484.816 298.678, 485.154 284.838 C 485.406 274.534, 485.846 270.550, 486.768 270.243 C 487.977 269.841, 488.893 268.982, 491.789 265.535 C 492.623 264.543, 494.796 264, 497.932 264 C 501.541 264, 502.950 263.572, 503.426 262.333 C 504.453 259.657, 502.544 258.615, 498.927 259.876 C 494.528 261.409, 489.776 261.288, 487.441 259.582 C 485.631 258.260, 485.479 256.569, 485.183 234.471 C 484.882 212.036, 484.762 210.751, 482.933 210.272 C 481.282 209.840, 481 208.853, 481 203.500 C 481 198.080, 481.269 197.163, 482.995 196.712 C 484.092 196.425, 485.297 195.360, 485.672 194.345 C 486.619 191.782, 487.983 191.033, 491.731 191.015 C 494.303 191.003, 495.085 190.509, 495.565 188.595 C 496.012 186.817, 497.087 186.019, 499.695 185.529 C 501.968 185.103, 503.399 184.192, 503.719 182.967 C 503.992 181.922, 505.072 180.794, 506.119 180.462 C 507.166 180.130, 508.704 178.540, 509.537 176.929 C 510.868 174.355, 511.592 174, 515.507 174 C 519.425 174, 520.038 173.699, 520.589 171.500 C 521.101 169.461, 521.829 169, 524.537 169 C 527.633 169, 531 166.930, 531 165.026 C 531 164.569, 532.350 163.725, 534 163.150 C 537.036 162.092, 537.874 159.441, 536.393 155.582 C 535.527 153.324, 531.917 153.603, 531.296 155.975 C 530.958 157.270, 529.591 158.174, 527.333 158.597 C 525.304 158.978, 523.245 160.222, 522.328 161.622 C 521.431 162.991, 519.789 164, 518.458 164 C 517.186 164, 515.308 165.064, 514.285 166.365 C 513.261 167.666, 511.372 169.065, 510.086 169.473 C 508.799 169.881, 505.397 172.642, 502.524 175.608 C 499.362 178.873, 496.444 181, 495.129 181 C 493.783 181, 492.524 181.950, 491.818 183.500 C 490.757 185.830, 490.188 186, 483.480 186 L 476.281 186 475.391 180.750 C 474.722 176.808, 473.955 175.261, 472.312 174.539 C 469.752 173.416, 469.032 171.275, 469.014 164.725 C 469.002 160.558, 468.682 159.829, 466.500 159 C 464.668 158.304, 463.996 157.308, 463.986 155.275 C 463.960 150.018, 462.889 148.028, 459.633 147.188 C 456.778 146.451, 456.450 145.946, 455.933 141.500 C 455.621 138.817, 454.783 136.428, 454.070 136.190 C 453.356 135.952, 452.049 134.912, 451.164 133.879 C 450.279 132.845, 449.031 132, 448.389 132 C 447.747 132, 446.924 130.313, 446.558 128.250 C 445.478 122.156, 445.037 121.243, 442.909 120.686 C 441.170 120.232, 440.927 119.475, 441.192 115.328 C 441.436 111.505, 441.951 110.302, 443.665 109.549 C 444.856 109.027, 446.070 107.398, 446.364 105.929 C 446.679 104.356, 447.740 103.040, 448.949 102.724 C 450.346 102.358, 451 101.368, 451 99.617 C 451 97.986, 451.904 96.454, 453.473 95.426 C 454.930 94.471, 456.202 92.442, 456.568 90.487 C 457.013 88.117, 457.859 87.001, 459.529 86.582 C 460.815 86.259, 462.142 85.128, 462.479 84.067 C 462.815 83.007, 464.374 81.857, 465.944 81.512 C 468.797 80.886, 469.958 78.835, 469.986 74.367 C 469.995 73.081, 470.795 72.025, 472 71.710 C 476.114 70.634, 473.202 65.547, 468.830 66.173 C 467.576 66.353, 466.049 67.509, 465.436 68.743 C 464.824 69.977, 463.575 71.812, 462.661 72.822 C 461.748 73.831, 461 75.133, 461 75.714 C 461 76.295, 459.875 77.507, 458.500 78.408 C 457.125 79.309, 456 80.711, 456 81.523 C 456 82.335, 455.283 83, 454.406 83 C 453.530 83, 452.583 83.879, 452.302 84.953 C 452.021 86.028, 450.713 87.613, 449.396 88.476 C 448.078 89.340, 447 90.714, 447 91.530 C 447 92.346, 445.917 93.955, 444.593 95.106 C 443.268 96.258, 441.899 98.724, 441.550 100.588 C 441.200 102.451, 440.064 104.431, 439.025 104.987 C 437.986 105.543, 436.850 106.898, 436.500 107.999 C 436.028 109.488, 434.988 110, 432.433 110 C 430.545 110, 429 109.593, 429 109.096 C 429 107.643, 422.751 101, 421.383 101 C 420.697 101, 419.870 100.212, 419.546 99.250 C 419.223 98.287, 417.368 96.375, 415.425 95 C 413.482 93.625, 411.477 91.487, 410.971 90.250 C 410.443 88.961, 409.185 88, 408.025 88 C 406.911 88, 406 87.582, 406 87.071 C 406 85.298, 402.843 83, 400.407 83 C 398.769 83, 397.582 82.178, 396.827 80.519 C 396.205 79.155, 394.752 77.740, 393.598 77.376 C 392.444 77.011, 390.912 75.878, 390.193 74.857 C 389.209 73.458, 387.605 72.996, 383.693 72.985 C 377.757 72.967, 376.919 72.547, 375.251 68.750 C 374.192 66.340, 373.490 66, 369.571 66 C 367.087 66, 364.744 65.444, 364.300 64.750 C 363.860 64.063, 362.600 63.002, 361.500 62.393 C 359.714 61.405, 359.470 60.088, 359.217 50.080 L 358.933 38.874 356.217 39.187 C 353.683 39.479, 353.479 39.862, 353.194 44.858 C 352.955 49.043, 352.489 50.321, 351.068 50.692 C 350.067 50.954, 348.666 52.256, 347.955 53.584 C 346.672 55.981, 346.538 56, 330.992 56 L 315.321 56 314.182 53.500 L 313.043 51 290.956 51 C 277.643 51, 268.100 50.589, 266.934 49.965 C 265.103 48.985, 265 47.629, 265 24.465 L 265 0 261 0 L 257 0 257 6.090 M 365 7.849 C 365 10.883, 363.936 13, 362.412 13 C 360.692 13, 360.270 15.065, 359.497 27.250 C 358.906 36.577, 358.967 37, 360.904 37 C 363.470 37, 365 34.172, 365 29.430 C 365 26.750, 365.702 25.079, 367.544 23.372 C 369.885 21.202, 370.065 20.436, 369.794 13.757 C 369.524 7.097, 369.315 6.474, 367.250 6.180 C 365.564 5.941, 365 6.359, 365 7.849 M 60.667 73.667 C 60.376 73.958, 60.380 74.827, 60.676 75.598 C 61.373 77.415, 64 77.422, 64 75.607 C 64 74.154, 61.585 72.748, 60.667 73.667 M 526.500 250 C 526.160 250.550, 523.869 251, 521.410 251 C 518.357 251, 516.755 251.476, 516.362 252.500 C 515.992 253.463, 514.448 254, 512.048 254 C 508.672 254, 505 256.255, 505 258.329 C 505 259.418, 521.955 259.095, 524.066 257.965 C 525.130 257.395, 526 256.270, 526 255.465 C 526 254.462, 527.086 254, 529.441 254 C 533.347 254, 534.741 252.598, 532.964 250.456 C 531.585 248.796, 527.426 248.502, 526.500 250 M 53 335.430 C 53 337.190, 52.379 337.949, 50.750 338.180 C 48.552 338.493, 48.494 338.830, 48.223 352.750 L 47.945 367 50.348 367 C 52.896 367, 54 369.796, 54 376.247 C 54 378.738, 54.243 379.043, 55.435 378.054 C 56.224 377.399, 58.361 377.007, 60.185 377.182 C 62.992 377.451, 63.550 377.935, 63.825 380.342 C 64.136 383.056, 64.338 383.161, 68.325 382.669 C 77.279 381.566, 79.859 380.796, 79.319 379.390 C 79.030 378.635, 79.540 377.730, 80.454 377.379 C 81.367 377.029, 81.907 376.200, 81.653 375.538 C 81.399 374.875, 81.823 374.333, 82.595 374.333 C 83.368 374.333, 84 374.966, 84 375.740 C 84 378.009, 87.468 376.705, 87.811 374.307 C 88.018 372.861, 87.350 371.722, 85.811 370.899 C 84.540 370.219, 83.275 369.800, 83 369.968 C 82.725 370.136, 82.065 369.333, 81.533 368.184 C 80.924 366.868, 79.443 365.984, 77.533 365.797 L 74.500 365.500 74.214 355.750 C 73.931 346.132, 73.894 346, 71.464 346 C 69.098 346, 69 345.741, 69 339.500 L 69 333 61 333 C 53.194 333, 53 333.059, 53 335.430 M 468.750 359.735 C 464.208 360.093, 464 360.242, 464 363.148 C 464 365.346, 463.446 366.332, 462 366.710 C 460.878 367.004, 460 368.074, 460 369.148 C 460 370.201, 459.325 371.322, 458.500 371.638 C 457.482 372.029, 457 373.625, 457 376.607 C 457 380.333, 457.304 381, 459 381 C 460.887 381, 461.429 381.954, 461.091 384.681 C 461.010 385.330, 462.194 386.005, 463.722 386.181 C 465.727 386.411, 466.500 387.057, 466.500 388.500 C 466.500 389.813, 467.273 390.610, 468.750 390.820 C 470.196 391.025, 471 391.829, 471 393.070 C 471 394.691, 471.721 395, 475.500 395 L 480 395 480 379.500 L 480 364 477.500 364 C 475.500 364, 475 363.500, 475 361.500 C 475 360.125, 474.663 359.081, 474.250 359.180 C 473.837 359.279, 471.363 359.529, 468.750 359.735 M 88 389.500 C 88 391.822, 88.344 392, 92.833 392 C 98.347 392, 98.981 391.644, 98.275 388.942 C 97.859 387.354, 96.877 387, 92.883 387 C 88.341 387, 88 387.175, 88 389.500 M 103 391.950 C 103 396.670, 103.163 397, 105.500 397 C 107.297 397, 108 397.539, 108 398.917 C 108 401.390, 108.665 401.567, 116.479 401.165 L 123 400.829 123 396.415 L 123 392 119.070 392 C 115.755 392, 115.089 391.647, 114.820 389.750 C 114.536 387.757, 113.844 387.466, 108.750 387.200 L 103 386.900 103 391.950 M 420.714 392.620 C 420.321 393.012, 420 395.006, 420 397.050 C 420 399.926, 419.547 400.885, 418 401.290 C 416.649 401.643, 416 402.654, 416 404.406 C 416 406.506, 415.524 407, 413.500 407 C 411.518 407, 411 406.496, 411 404.567 C 411 403.013, 410.278 401.906, 409 401.500 C 407.900 401.151, 407 399.996, 407 398.933 C 407 395.911, 401.252 396.206, 400.820 399.250 C 400.533 401.271, 399.864 401.530, 394.250 401.798 C 388.363 402.078, 388 402.238, 388 404.548 C 388 406.176, 388.588 407.036, 389.750 407.106 C 395.666 407.466, 395.500 407.339, 395.500 411.500 L 395.500 415.500 405.750 415.785 L 416 416.070 416 411.535 C 416 407.667, 416.294 407, 418 407 C 419.467 407, 420 407.667, 420 409.500 L 420 412 431 412 L 442 412 442 407.070 C 442 402.718, 441.736 402.102, 439.750 401.820 C 438.304 401.614, 437.386 400.696, 437.180 399.250 C 436.921 397.426, 436.224 397, 433.500 397 C 430.776 397, 430.079 396.574, 429.820 394.750 C 429.557 392.902, 428.779 392.447, 425.464 392.203 C 423.244 392.040, 421.106 392.227, 420.714 392.620 M 442.750 392.553 C 441.448 393.908, 441.938 397, 443.455 397 C 444.358 397, 445.146 398.421, 445.533 400.750 C 446.592 407.124, 446.424 407, 453.969 407 L 461 407 461 400.559 C 461 397.016, 460.573 393.854, 460.051 393.532 C 458.476 392.558, 443.556 391.714, 442.750 392.553 M 78.175 401.750 L 78.500 410.500 85.750 410.794 L 93 411.088 93 406.613 C 93 402.735, 92.700 402.097, 90.750 401.820 C 89.139 401.591, 88.410 400.719, 88.184 398.750 C 87.960 396.807, 87.300 396, 85.934 396 C 84.870 396, 84 395.325, 84 394.500 C 84 393.492, 82.992 393, 80.925 393 L 77.849 393 78.175 401.750 M 134 401.956 L 134 407 139.500 407 C 144.333 407, 145 407.242, 145 409 C 145 410.486, 145.667 411, 147.594 411 C 149.346 411, 150.357 410.351, 150.710 409 C 151 407.893, 152.074 407, 153.117 407 C 154.459 407, 155 406.282, 155 404.500 C 155 402.402, 154.529 402, 152.070 402 C 149.792 402, 149.068 401.499, 148.820 399.750 C 148.526 397.685, 147.903 397.476, 141.250 397.206 L 134 396.912 134 401.956 M 98 407 C 98 411.333, 98.267 412, 100 412 C 101.704 412, 102 412.667, 102 416.500 C 102 420.599, 102.217 421, 104.430 421 C 106.106 421, 106.960 421.634, 107.180 423.040 C 107.356 424.161, 107.838 425.061, 108.250 425.040 C 108.662 425.018, 111.198 425, 113.883 425 C 118.342 425, 118.810 424.775, 119.261 422.413 C 119.533 420.991, 119.524 416.941, 119.241 413.413 L 118.726 407 113.363 407 C 108.309 407, 108 406.856, 108 404.500 C 108 402.167, 107.667 402, 103 402 L 98 402 98 407 M 161 404.500 C 161 406.333, 161.533 407, 163 407 C 164.476 407, 165 407.667, 165 409.546 C 165 412.051, 165.107 412.087, 171.750 411.796 C 177.735 411.534, 178.500 411.273, 178.500 409.500 C 178.500 407.870, 177.732 407.444, 174.345 407.197 C 170.892 406.945, 170.087 406.481, 169.576 404.447 C 169.053 402.364, 168.370 402, 164.981 402 C 161.401 402, 161 402.252, 161 404.500 M 370 404.094 C 370 405.346, 369.197 406.397, 368 406.710 C 366.359 407.139, 366 408.074, 366 411.916 L 366 416.598 369.417 416.199 C 372.383 415.853, 372.879 416.111, 373.167 418.150 C 373.649 421.555, 378.705 422.109, 379.173 418.809 C 379.438 416.935, 380.206 416.442, 383.250 416.190 C 386.098 415.954, 387 415.441, 387 414.056 C 387 413.054, 386.100 411.998, 385 411.710 C 383.366 411.283, 383 410.346, 383 406.594 L 383 402 376.500 402 C 370.570 402, 370 402.184, 370 404.094 M 183 409.470 C 183 411.502, 183.492 412, 185.500 412 C 187.500 412, 188 412.500, 188 414.500 C 188 416.690, 188.433 417, 191.500 417 C 194.567 417, 195 417.310, 195 419.500 C 195 422.333, 195.703 422.439, 207.250 421.348 L 214 420.711 214 416.355 C 214 412.410, 213.771 412, 211.570 412 C 209.810 412, 209.051 411.379, 208.820 409.750 C 208.510 407.568, 208.113 407.492, 195.750 407.220 L 183 406.940 183 409.470 M 345.750 407.746 L 336 408.072 336 411.977 C 336 416.533, 335.048 417.389, 330.976 416.495 C 328.913 416.042, 328 415.242, 328 413.887 C 328 412.051, 327.347 411.950, 317.250 412.216 L 306.500 412.500 306.500 417 C 306.500 420.905, 306.797 421.542, 308.750 421.820 C 310.196 422.025, 311 422.829, 311 424.070 C 311 425.841, 311.781 426, 320.500 426 C 329.333 426, 330 425.860, 330 424 C 330 422.444, 330.667 422, 333 422 C 335.543 422, 336 421.615, 336 419.469 C 336 417.053, 338.393 415.059, 339.710 416.376 C 340.053 416.719, 340.333 419.025, 340.333 421.500 L 340.333 426 349.167 426 C 357.922 426, 358 425.978, 358 423.500 C 358 421.944, 358.567 421, 359.500 421 C 360.690 421, 361 419.556, 361 414 L 361 407 358.250 407.209 C 356.738 407.324, 351.113 407.566, 345.750 407.746 M 69.638 409.500 C 69.247 410.520, 69.692 411, 71.031 411 C 72.115 411, 73 410.325, 73 409.500 C 73 408.675, 72.373 408, 71.607 408 C 70.841 408, 69.955 408.675, 69.638 409.500 M 124.195 416.750 C 124.455 420.803, 124.830 421.547, 126.750 421.820 C 128.196 422.025, 129 422.829, 129 424.070 C 129 425.719, 129.727 426, 134 426 C 138.667 426, 139 426.167, 139 428.500 C 139 430.796, 139.367 431, 143.500 431 L 148 431 148 424 C 148 417.667, 147.810 417, 146 417 C 144.533 417, 144 416.333, 144 414.500 L 144 412 133.945 412 L 123.890 412 124.195 416.750 M 218.557 412.908 C 217.669 414.344, 219.348 417.500, 221 417.500 C 222.050 417.500, 222.592 418.776, 222.807 421.750 L 223.115 426 233.057 426 L 243 426 243 419 L 243 412 231.059 412 C 224.491 412, 218.866 412.408, 218.557 412.908 M 251 414.464 C 251 416.052, 250.439 417, 249.500 417 C 248.384 417, 248 418.177, 248 421.594 C 248 425.346, 248.366 426.283, 250 426.710 C 251.107 427, 252 428.074, 252 429.117 C 252 430.766, 252.799 431, 258.430 431 C 264.338 431, 264.887 430.817, 265.180 428.750 C 265.412 427.121, 266.281 426.411, 268.328 426.176 L 271.157 425.852 270.741 419.176 L 270.325 412.500 260.663 412.214 L 251 411.928 251 414.464 M 275.667 412.667 C 274.824 413.509, 274.804 419.769, 275.630 423.901 C 276.131 426.407, 276.643 426.931, 278.130 426.459 C 279.625 425.984, 280 426.380, 280 428.433 C 280 430.988, 280.041 431, 288.500 431 C 296.900 431, 297 430.971, 297 428.500 C 297 426.667, 297.533 426, 299 426 C 300.810 426, 301 425.333, 301 419 L 301 412 288.667 412 C 281.883 412, 276.033 412.300, 275.667 412.667 M 446.625 416.125 C 445.519 421.653, 445.719 422, 450 422 C 452.200 422, 454 421.550, 454 421 C 454 420.450, 455.350 420, 457 420 C 459.333 420, 460 419.556, 460 418 C 460 416.533, 460.667 416, 462.500 416 C 464.056 416, 465 415.433, 465 414.500 C 465 413.279, 463.347 413, 456.125 413 L 447.250 413 446.625 416.125 M 164.250 416.723 C 161.841 417.022, 161 417.628, 161 419.063 C 161 420.656, 160.290 421, 157 421 L 153 421 153 426 C 153 430.667, 153.167 431, 155.500 431 C 157.500 431, 158 431.500, 158 433.500 C 158 435.690, 158.433 436, 161.500 436 C 164.722 436, 165 436.238, 165 439 L 165 442 172 442 L 179 442 179 434.500 C 179 427.167, 178.944 427, 176.500 427 C 174.175 427, 174 426.659, 174 422.117 C 174 417.898, 173.694 417.151, 171.750 416.630 C 170.512 416.299, 169.050 416.093, 168.500 416.174 C 167.950 416.254, 166.037 416.502, 164.250 416.723 M 81.500 419 C 85.401 421.583, 88 421.583, 88 419 C 88 417.280, 87.336 417.001, 83.250 417.007 L 78.500 417.013 81.500 419 M 425 419.500 C 425 421.500, 424.500 422, 422.500 422 C 420.500 422, 420 422.500, 420 424.500 C 420 426.796, 419.633 427, 415.500 427 C 411.667 427, 411 427.296, 411 429 C 411 430.704, 411.667 431, 415.500 431 C 419.579 431, 420 431.224, 420 433.392 C 420 435.109, 420.705 435.960, 422.500 436.411 C 424.114 436.816, 425 437.740, 425 439.019 C 425 440.700, 425.681 441, 429.500 441 C 433.633 441, 434 440.796, 434 438.500 C 434 436.944, 434.567 436, 435.500 436 C 436.433 436, 437 435.056, 437 433.500 C 437 431.167, 436.667 431, 432 431 C 427.393 431, 427 430.812, 427 428.607 C 427 427.291, 427.675 425.955, 428.500 425.638 C 429.325 425.322, 430 424.374, 430 423.531 C 430 422.049, 431.616 421.525, 435.250 421.830 C 436.487 421.933, 437 421.247, 437 419.488 C 437 417.114, 436.726 417, 431 417 C 425.267 417, 425 417.111, 425 419.500 M 396 424 C 396 426.333, 395.556 427, 394 427 C 391.910 427, 391.624 427.993, 392.630 431.750 C 393.390 434.585, 394.600 434.639, 395.323 431.872 C 395.753 430.227, 396.450 429.853, 398.390 430.224 C 400.368 430.602, 400.963 430.258, 401.200 428.602 C 401.449 426.856, 402.304 426.448, 406.250 426.195 C 410.539 425.920, 411 425.653, 411 423.445 C 411 421.069, 410.789 421, 403.500 421 L 396 421 396 424 M 68.370 424.250 C 68.701 425.488, 68.979 427.512, 68.986 428.750 C 68.998 430.748, 69.504 431, 73.500 431 L 78 431 78 436.569 L 78 442.137 87.502 441.819 C 96.709 441.510, 97.004 441.568, 97.002 443.689 C 97 445.502, 97.739 445.988, 101.309 446.524 C 108.692 447.631, 111.454 446.902, 111.816 443.750 C 111.996 442.192, 111.645 441, 111.007 441 C 110.388 441, 110.157 440.555, 110.493 440.011 C 110.843 439.445, 110.442 439.277, 109.552 439.618 C 108.698 439.946, 108 439.909, 108 439.536 C 108 437.944, 111.236 435.836, 114.490 435.308 C 120.076 434.402, 118.994 432, 113 432 C 108.068 432, 107.275 432.671, 107.904 436.318 C 107.982 436.767, 104.840 437.004, 100.924 436.844 C 94.543 436.584, 93.559 436.265, 91.466 433.777 C 89.427 431.354, 88.420 431, 83.565 431 C 78.296 431, 78 430.867, 78 428.500 C 78 426.500, 77.500 426, 75.500 426 C 73.667 426, 73 425.467, 73 424 C 73 422.510, 72.333 422, 70.383 422 C 68.158 422, 67.857 422.336, 68.370 424.250 M 89 424 C 89 425.606, 89.667 426, 92.383 426 C 94.926 426, 95.897 425.503, 96.290 424 C 96.747 422.252, 96.320 422, 92.906 422 C 89.667 422, 89 422.341, 89 424 M 188 428.430 C 188 430.190, 187.379 430.949, 185.750 431.180 C 184.112 431.413, 183.411 432.280, 183.172 434.371 C 182.715 438.366, 183.778 442, 185.402 442 C 186.153 442, 187.011 442.933, 187.309 444.074 C 187.607 445.215, 188.785 446.393, 189.926 446.691 C 191.067 446.989, 192 447.856, 192 448.617 C 192 449.686, 193.930 450, 200.500 450 L 209 450 209 438 L 209 426 198.500 426 C 188.047 426, 188 426.011, 188 428.430 M 374 428.500 C 374 430.482, 373.496 431, 371.566 431 C 369.655 431, 369.065 431.590, 368.816 433.750 C 368.553 436.041, 367.958 436.552, 365.250 436.813 C 362.227 437.105, 362 437.384, 362.006 440.813 C 362.009 442.841, 362.462 446.124, 363.014 448.110 C 363.883 451.239, 364.348 451.656, 366.508 451.243 C 367.961 450.966, 369 451.233, 369 451.883 C 369 452.606, 371.645 453, 376.500 453 L 384 453 384 449.500 C 384 446.278, 384.238 446, 387 446 C 389.333 446, 390 445.556, 390 444 C 390 442.381, 389.333 442, 386.500 442 C 384.575 442, 383 442.450, 383 443 C 383 443.550, 382.100 444, 381 444 C 378.862 444, 378.640 443.051, 379.625 438.125 C 380.177 435.366, 380.645 435, 383.625 435 C 386.876 435, 387 434.858, 387 431.136 C 387 427.297, 386.970 427.268, 382.360 426.636 C 374.685 425.584, 374 425.737, 374 428.500 M 53 433.417 C 53 434.746, 52.438 436.060, 51.750 436.338 C 51.063 436.615, 51.737 436.878, 53.250 436.921 C 55.496 436.986, 56 437.459, 56 439.500 C 56 441.833, 56.333 442, 61 442 C 65.333 442, 66 442.267, 66 444 C 66 445.100, 66.623 446, 67.383 446 C 68.144 446, 69.002 446.900, 69.290 448 C 69.591 449.153, 70.654 450, 71.799 450 C 72.892 450, 74.045 450.675, 74.362 451.500 C 74.757 452.531, 76.368 453, 79.512 453 C 82.593 453, 84.035 453.408, 83.925 454.250 C 83.454 457.877, 83.950 458.235, 88.500 457.552 L 93 456.877 93 459.939 L 93 463 99.392 463 C 105.375 463, 105.823 463.160, 106.411 465.500 C 107.014 467.905, 107.340 468, 115.019 468 C 122.333 468, 123 468.167, 123 470 C 123 471.556, 123.667 472, 126 472 C 128.533 472, 129 472.389, 129 474.500 C 129 476.500, 129.500 477, 131.500 477 C 133.833 477, 134 476.667, 134 472 C 134 467.333, 133.833 467, 131.500 467 C 129.204 467, 129 466.633, 129 462.500 L 129 458 122.500 457.821 C 118.925 457.723, 114.987 457.611, 113.750 457.571 C 112.151 457.521, 111.408 458.151, 111.180 459.750 C 110.979 461.170, 110.169 462, 108.985 462 C 107.457 462, 107.053 461.120, 106.805 457.250 L 106.500 452.500 99.750 452.204 C 93.170 451.916, 90.974 450.763, 95 449.710 C 96.100 449.423, 97 448.695, 97 448.094 C 97 447.363, 93.018 447, 85 447 L 73 447 73 444.500 C 73 442.695, 72.462 442, 71.066 442 C 69.700 442, 69.040 441.193, 68.816 439.250 C 68.590 437.281, 67.861 436.409, 66.250 436.180 C 64.621 435.949, 64 435.190, 64 433.430 C 64 431.151, 63.658 431, 58.500 431 C 53.351 431, 53 431.154, 53 433.417 M 214 441.376 C 214 451.112, 214.127 451.780, 215.887 451.319 C 216.925 451.048, 218.077 451.315, 218.446 451.913 C 218.853 452.571, 222.839 453, 228.559 453 C 237.944 453, 238 452.985, 238.071 450.500 C 238.111 449.125, 238.176 444.288, 238.216 439.750 L 238.289 431.500 226.144 431.219 L 214 430.938 214 441.376 M 311.703 431.631 C 311.316 432.017, 311 433.127, 311 434.097 C 311 435.165, 310.112 435.987, 308.750 436.180 C 307.139 436.409, 306.410 437.281, 306.184 439.250 C 305.935 441.410, 305.345 442, 303.434 442 C 301.396 442, 301 441.511, 301 439 C 301 435.570, 300.803 435.535, 287.651 436.647 C 280.467 437.254, 280 437.437, 280 439.647 C 280 441.490, 279.458 442, 277.500 442 C 275.167 442, 275 442.333, 275 447 C 275 451.667, 275.167 452, 277.500 452 C 279.500 452, 280 452.500, 280 454.500 L 280 457 290.500 457 L 301 457 301 454.500 C 301 452.310, 301.433 452, 304.500 452 C 307.578 452, 308 452.305, 308 454.532 L 308 457.063 319.750 456.782 L 331.500 456.500 332.391 451.250 C 332.954 447.928, 333.781 446, 334.641 446 C 335.388 446, 336 445.523, 336 444.941 C 336 444.359, 335.550 444.160, 335 444.500 C 334.450 444.840, 334 444.416, 334 443.559 C 334 442.681, 333.150 442, 332.052 442 C 330.408 442, 330.057 441.183, 329.802 436.750 L 329.500 431.500 320.953 431.214 C 316.252 431.057, 312.089 431.244, 311.703 431.631 M 346.667 431.667 C 346.300 432.033, 346 433.102, 346 434.042 C 346 435.762, 342.392 437, 337.375 437 C 335.537 437, 335 437.541, 335 439.391 C 335 441.378, 335.590 441.850, 338.500 442.190 C 340.425 442.415, 342 442.239, 342 441.799 C 342 441.360, 343.738 441, 345.861 441 C 349.441 441, 349.688 440.818, 349.245 438.500 C 348.799 436.170, 349.039 436, 352.767 436 C 355.886 436, 356.879 435.572, 357.275 434.058 C 357.554 432.990, 357.531 431.865, 357.225 431.558 C 356.436 430.769, 347.472 430.862, 346.667 431.667 M 466 433.893 C 466 436.359, 464.125 437, 456.918 437 C 451.272 437, 451 437.115, 451 439.500 C 451 441.333, 450.467 442, 449 442 C 447.533 442, 447 442.667, 447 444.500 C 447 446.796, 447.367 447, 451.500 447 C 455.855 447, 456.488 446.488, 456.085 443.294 C 455.981 442.473, 458.254 441.995, 463.216 441.794 C 470.335 441.507, 470.507 441.438, 470.816 438.750 C 471.040 436.807, 471.700 436, 473.066 436 C 474.333 436, 475 435.310, 475 434 C 475 432.296, 474.333 432, 470.500 432 C 466.751 432, 466 432.316, 466 433.893 M 134.397 436.167 C 134.114 436.625, 132.344 437, 130.464 437 C 127.922 437, 126.626 437.640, 125.408 439.500 C 124.126 441.457, 122.925 442, 119.885 442 C 116.408 442, 116 442.262, 116 444.500 C 116 446.305, 116.538 447, 117.934 447 C 119.300 447, 119.960 447.807, 120.184 449.750 L 120.500 452.500 131.414 452.786 C 137.999 452.958, 142.740 452.660, 143.364 452.036 C 143.934 451.466, 145.101 451, 145.957 451 C 147.189 451, 147.440 450.060, 147.157 446.506 C 146.828 442.366, 146.616 442.058, 144.472 442.596 C 140.305 443.642, 138 442.218, 138 438.599 C 138 436.322, 137.533 435.333, 136.456 435.333 C 135.607 435.333, 134.680 435.708, 134.397 436.167 M 243.667 436.667 C 243.300 437.033, 243 440.602, 243 444.597 C 243 451.369, 243.152 451.883, 245.250 452.180 C 246.861 452.409, 247.590 453.281, 247.816 455.250 L 248.133 458 256.566 458 L 265 458 265 452.500 C 265 447.300, 265.136 447, 267.500 447 C 269.864 447, 270 446.700, 270 441.500 L 270 436 257.167 436 C 250.108 436, 244.033 436.300, 243.667 436.667 M 154 444 C 154 445.619, 154.667 446, 157.500 446 C 160.333 446, 161 445.619, 161 444 C 161 442.381, 160.333 442, 157.500 442 C 154.667 442, 154 442.381, 154 444 M 314 444.132 C 314 446.433, 318.524 447.328, 325.651 446.438 C 330.444 445.839, 331.084 445.534, 329.689 444.514 C 328.777 443.848, 328.254 443.079, 328.527 442.807 C 328.799 442.534, 325.642 442.336, 321.511 442.367 C 315.114 442.414, 314 442.676, 314 444.132 M 393 446 L 393 450 398.965 450 C 403.906 450, 405.113 449.657, 406 448 C 406.589 446.900, 407.955 446, 409.035 446 C 410.333 446, 411 445.321, 411 444 C 411 442.148, 410.333 442, 402 442 L 393 442 393 446 M 338.940 446.218 C 336.393 447.160, 336.434 450.619, 339 451.290 C 340.456 451.671, 341 452.654, 341 454.906 C 341 457.753, 341.269 458, 344.375 458 C 350.626 458, 354 456.893, 354 454.844 C 354 453.795, 354.788 452.647, 355.750 452.292 C 359.609 450.868, 360.157 447, 356.500 447 C 355.125 447, 354 446.663, 354 446.250 C 354 445.293, 341.514 445.266, 338.940 446.218 M 39.184 449.750 C 39.467 452.211, 39.947 452.532, 43.750 452.807 L 48 453.115 48 457.557 C 48 461.630, 47.792 462, 45.500 462 C 43.714 462, 43 461.460, 43 460.107 C 43 457.985, 40.149 456.451, 38.769 457.831 C 38.275 458.325, 38.013 460.702, 38.186 463.114 C 38.449 466.786, 38.866 467.552, 40.750 467.820 C 41.987 467.995, 43 468.813, 43 469.637 C 43 470.658, 43.610 470.941, 44.916 470.527 C 45.970 470.192, 47.121 470.387, 47.475 470.959 C 47.829 471.532, 49.216 472, 50.559 472 C 52.481 472, 53 472.519, 53 474.445 C 53 476.653, 53.461 476.920, 57.750 477.195 C 61.803 477.455, 62.547 477.830, 62.820 479.750 C 63.066 481.485, 63.794 482, 66 482 C 68.206 482, 68.934 482.515, 69.180 484.250 C 69.445 486.110, 70.219 486.552, 73.647 486.802 C 76.766 487.030, 77.920 487.588, 78.303 489.052 C 78.715 490.626, 79.695 491, 83.406 491 C 87.640 491, 88 491.196, 88 493.500 C 88 495.929, 88.200 496, 95 496 C 101.800 496, 102 496.071, 102 498.500 C 102 500.981, 102.067 501, 111 501 C 119.933 501, 120 501.019, 120 503.500 C 120 505.750, 120.400 506, 124 506 C 127.600 506, 128 506.250, 128 508.500 C 128 510.944, 128.167 511, 135.500 511 C 142.789 511, 143 511.069, 143 513.445 C 143 515.653, 143.461 515.920, 147.750 516.195 C 151.803 516.455, 152.547 516.830, 152.820 518.750 C 153.087 520.634, 153.759 521, 156.953 521 C 159.926 521, 160.882 521.441, 161.290 523 C 161.741 524.724, 162.654 525, 167.906 525 C 173.740 525, 174 525.107, 174 527.500 L 174 530 191.434 530 L 208.867 530 209.184 532.614 C 209.499 535.217, 209.543 535.229, 219 535.364 C 227.849 535.491, 228.521 535.644, 228.801 537.608 C 229.067 539.472, 229.979 539.789, 236.702 540.358 C 246.507 541.186, 283.657 541.178, 296.250 540.344 C 305.633 539.723, 306 539.610, 306 537.349 C 306 535.009, 306.046 535, 318.521 535 C 330.854 535, 331.060 534.963, 332.164 532.539 C 333.192 530.282, 333.914 530.055, 340.893 529.789 C 347.918 529.522, 348.524 529.328, 348.820 527.250 C 349.120 525.133, 349.607 525, 357.070 525 C 364.333 525, 365 524.832, 365 523 C 365 521.121, 365.667 521, 376 521 L 387 521 387 518.555 C 387 516.347, 387.461 516.080, 391.750 515.805 C 395.773 515.547, 396.548 515.162, 396.814 513.294 C 397.097 511.306, 397.788 511.059, 403.814 510.794 C 409.881 510.527, 410.530 510.292, 410.820 508.250 C 411.123 506.110, 411.572 506, 420 506 C 428.428 506, 428.877 505.890, 429.180 503.750 C 429.435 501.955, 430.239 501.438, 433.155 501.195 C 436.075 500.952, 436.934 500.398, 437.424 498.445 C 437.943 496.378, 438.637 496, 441.911 496 C 445.207 496, 445.876 495.628, 446.411 493.500 C 446.992 491.182, 447.473 491, 453.019 491 C 458.287 491, 459 490.767, 459 489.045 C 459 487.603, 459.918 486.918, 462.500 486.434 C 465.033 485.959, 466 485.255, 466 483.889 C 466 482.321, 466.754 482, 470.430 482 C 474.264 482, 474.904 481.697, 475.180 479.750 C 475.409 478.139, 476.281 477.410, 478.250 477.184 C 480.410 476.935, 481 476.345, 481 474.434 C 481 472.523, 481.522 472, 483.430 472 C 485.190 472, 485.949 471.379, 486.180 469.750 C 486.390 468.273, 487.187 467.500, 488.500 467.500 C 490.302 467.500, 490.515 466.783, 490.651 460.250 C 490.796 453.280, 490.712 453, 488.471 453 C 486.814 453, 486.047 453.651, 485.820 455.250 C 485.575 456.975, 484.741 457.573, 482.250 457.813 C 479.810 458.049, 479 458.609, 479 460.063 C 479 461.780, 478.262 462, 472.500 462 C 466.811 462, 466 461.766, 466 460.125 C 466 458.863, 465.067 458.063, 463.149 457.680 C 458.673 456.785, 456 457.883, 456 460.617 C 456 462.775, 456.425 463, 460.500 463 C 464.333 463, 465 463.296, 465 465 C 465 466.543, 464.333 467, 462.082 467 C 457.890 467, 456 467.949, 456 470.052 C 456 471.536, 455.083 471.949, 451.250 472.195 C 447.197 472.455, 446.453 472.830, 446.180 474.750 C 445.904 476.697, 445.264 477, 441.430 477 C 437.371 477, 437 476.790, 437 474.500 C 437 472.204, 437.367 472, 441.500 472 C 445.633 472, 446 471.796, 446 469.500 C 446 467.162, 446.329 467, 451.070 467 C 455.755 467, 456.115 466.829, 455.820 464.750 C 455.547 462.830, 454.803 462.455, 450.750 462.195 C 446.264 461.907, 446 462.030, 446 464.400 C 446 466.801, 445.711 466.921, 439.250 467.204 C 433.117 467.473, 432.471 467.706, 432.180 469.750 C 431.890 471.794, 431.319 472, 425.930 472 C 420.307 472, 420 472.126, 420 474.445 C 420 476.653, 419.539 476.920, 415.250 477.195 C 411.197 477.455, 410.453 477.830, 410.180 479.750 C 409.905 481.691, 409.261 482, 405.500 482 C 401.739 482, 401.095 482.309, 400.820 484.250 C 400.529 486.294, 399.883 486.527, 393.750 486.796 C 387.820 487.055, 387 487.329, 387 489.046 C 387 490.695, 386.298 491, 382.500 491 C 378.367 491, 378 491.204, 378 493.500 C 378 495.944, 377.833 496, 370.500 496 C 363.167 496, 363 496.056, 363 498.500 C 363 500.971, 362.900 501, 354.500 501 C 346.100 501, 346 501.029, 346 503.500 L 346 506 334.500 506 L 323 506 323 508.500 L 323 511 312.500 511 L 302 511 302 513.488 L 302 515.977 262.750 516.238 C 224.254 516.495, 223.500 516.538, 223.500 518.500 C 223.500 520.464, 224.254 520.505, 264.818 520.761 L 306.136 521.022 305.818 523.261 L 305.500 525.500 264.750 525.761 L 224 526.022 224 523.511 L 224 521 206 521 L 188 521 188 518.500 L 188 516 206 516 L 224 516 224 513.500 L 224 511 206 511 L 188 511 188 508.500 C 188 506.019, 187.933 506, 179 506 C 170.067 506, 170 505.981, 170 503.500 C 170 501.111, 169.733 501, 164 501 C 158.267 501, 158 500.889, 158 498.500 C 158 496.056, 157.833 496, 150.500 496 C 143.167 496, 143 495.944, 143 493.500 C 143 491.045, 142.859 491, 135.117 491 C 128.074 491, 127.177 490.787, 126.710 489 C 126.259 487.276, 125.346 487, 120.094 487 C 114.260 487, 114 486.893, 114 484.500 C 114 482.310, 113.567 482, 110.500 482 C 107.433 482, 107 481.690, 107 479.500 C 107 477.009, 106.967 477, 97.500 477 L 88 477 88 474.445 C 88 472.021, 87.757 471.906, 83.250 472.195 C 79.197 472.455, 78.453 472.830, 78.180 474.750 C 77.904 476.697, 77.264 477, 73.430 477 C 69.371 477, 69 476.790, 69 474.500 C 69 472.162, 69.329 472, 74.070 472 C 78.755 472, 79.115 471.829, 78.820 469.750 C 78.554 467.880, 77.783 467.448, 74.250 467.193 C 70.814 466.944, 70 466.513, 70 464.943 C 70 463.343, 69.294 463, 66 463 C 62.222 463, 62 462.833, 62 460 C 62 457.167, 61.778 457, 58 457 C 54.427 457, 54 456.740, 54 454.562 C 54 452.523, 53.550 452.154, 51.250 452.312 C 48.937 452.470, 48.450 452.063, 48.184 449.750 C 47.891 447.204, 47.533 447, 43.367 447 C 39.048 447, 38.880 447.111, 39.184 449.750 M 162.882 448.967 C 162.816 449.810, 162.816 450.837, 162.882 451.250 C 162.947 451.663, 159.625 452, 155.500 452 L 148 452 148 455 C 148 457.533, 148.389 458, 150.500 458 C 152.500 458, 153 458.500, 153 460.500 C 153 462.884, 153.274 463, 158.893 463 C 163.209 463, 164.940 463.401, 165.362 464.500 C 166.222 466.742, 170 466.411, 170 464.094 C 170 462.680, 170.517 462.322, 172 462.710 C 173.717 463.159, 174 462.741, 174 459.756 C 174 457.844, 173.714 454.194, 173.365 451.645 L 172.730 447.012 167.865 447.223 C 164.315 447.378, 162.968 447.849, 162.882 448.967 M 428.667 447.667 C 428.300 448.033, 428 449.110, 428 450.060 C 428 451.980, 426.064 453, 422.418 453 C 420.505 453, 420 453.523, 420 455.500 C 420 457.796, 420.367 458, 424.500 458 C 428.633 458, 429 457.796, 429 455.500 C 429 453.263, 429.408 453, 432.883 453 C 436.029 453, 436.875 452.587, 437.335 450.826 C 437.648 449.631, 437.674 448.281, 437.393 447.826 C 436.784 446.842, 429.622 446.711, 428.667 447.667 M 473.250 447.684 C 471.884 447.960, 471 448.872, 471 450.003 C 471 451.293, 470.153 451.965, 468.250 452.184 C 466.281 452.410, 465.409 453.139, 465.180 454.750 C 464.901 456.714, 465.304 457, 468.349 457 C 470.267 457, 472.506 457.257, 473.323 457.571 C 474.372 457.973, 475.009 457.237, 475.485 455.071 C 476.050 452.498, 476.633 452, 479.079 452 C 480.686 452, 482 451.550, 482 451 C 482 450.450, 482.938 450, 484.083 450 C 485.303 450, 485.996 449.482, 485.755 448.750 C 485.335 447.477, 477.552 446.813, 473.250 447.684 M 183 455 C 183 456.333, 182.333 457, 181 457 C 179.179 457, 179 457.667, 179 464.454 L 179 471.909 185.750 472.204 C 191.883 472.473, 192.529 472.706, 192.820 474.750 C 193.252 477.792, 199 478.089, 199 475.070 C 199 473.829, 199.804 473.025, 201.250 472.820 C 203.160 472.548, 203.545 471.801, 203.800 467.871 C 204.074 463.633, 203.884 463.188, 201.550 462.602 C 199.291 462.035, 199 461.450, 199 457.481 L 199 453 191 453 C 183.667 453, 183 453.167, 183 455 M 396.820 455.250 C 396.617 456.677, 395.696 457.614, 394.302 457.813 C 392.536 458.064, 391.972 459.007, 391.431 462.609 C 391.062 465.075, 391.012 467.345, 391.320 467.654 C 391.629 467.962, 395.058 467.896, 398.941 467.506 C 404.959 466.902, 406 466.517, 406 464.899 C 406 463.319, 406.746 463, 410.441 463 C 412.884 463, 415.143 462.577, 415.463 462.061 C 415.782 461.544, 415.751 459.294, 415.394 457.061 L 414.744 453 405.942 453 C 397.574 453, 397.123 453.111, 396.820 455.250 M 222.750 457.755 C 215.015 458.040, 214 458.293, 214 459.931 C 214 461.073, 213.041 462.024, 211.500 462.411 C 209.306 462.961, 209 463.578, 209 467.450 C 209 471.263, 209.305 471.904, 211.250 472.180 C 213.170 472.453, 213.545 473.197, 213.805 477.250 L 214.110 482 224.086 482 L 234.062 482 233.781 469.832 C 233.616 462.674, 233.088 457.616, 232.500 457.548 C 231.950 457.485, 227.563 457.578, 222.750 457.755 M 368.820 460.250 C 368.617 461.674, 367.696 462.614, 366.311 462.811 C 364.948 463.006, 364.006 463.948, 363.811 465.311 C 363.591 466.858, 362.693 467.593, 360.750 467.816 C 358.211 468.109, 358 468.473, 358 472.566 C 358 475.760, 357.597 477, 356.559 477 C 354.652 477, 353.846 478.436, 354.621 480.454 C 355.125 481.769, 356.447 482.031, 361.374 481.794 C 366.735 481.537, 367.500 481.250, 367.500 479.500 C 367.500 478.073, 368.270 477.411, 370.188 477.190 C 372.070 476.972, 372.970 476.222, 373.188 474.690 C 373.450 472.849, 374.240 472.452, 378.146 472.199 C 382.628 471.910, 382.807 471.777, 383.196 468.449 C 383.417 466.552, 383.415 463.425, 383.190 461.500 L 382.781 458 375.960 458 C 369.648 458, 369.115 458.168, 368.820 460.250 M 243 464.500 C 242.477 465.875, 241.363 467, 240.525 467 C 239.002 467, 238.912 467.495, 238.618 477.500 L 238.500 481.500 247.250 481.789 C 255.979 482.077, 256 482.072, 256 479.594 C 256 477.345, 256.444 477.081, 260.689 476.805 L 265.378 476.500 265.109 470.025 C 264.961 466.464, 264.625 463.202, 264.361 462.775 C 264.098 462.349, 259.397 462, 253.916 462 C 244.206 462, 243.926 462.064, 243 464.500 M 275.699 462.634 C 275.315 463.019, 275 464.158, 275 465.167 C 275 466.456, 274.258 467, 272.500 467 C 270.055 467, 270 467.165, 270 474.529 L 270 482.058 283.250 481.779 L 296.500 481.500 296.500 472 L 296.500 462.500 286.449 462.217 C 280.922 462.062, 276.084 462.249, 275.699 462.634 M 310.250 462.642 C 309.563 462.931, 309 464.002, 309 465.023 C 309 466.446, 308.125 466.952, 305.250 467.190 L 301.500 467.500 301.500 477 L 301.500 486.500 310.750 486.788 L 320 487.075 320 484.538 C 320 482.497, 320.490 482, 322.500 482 C 324.500 482, 325 481.500, 325 479.500 C 325 477.500, 325.500 477, 327.500 477 C 329.833 477, 330 476.667, 330 472 C 330 467.727, 329.719 467, 328.070 467 C 326.829 467, 326.025 466.196, 325.820 464.750 C 325.526 462.683, 324.930 462.484, 318.500 462.309 C 314.650 462.203, 310.938 462.353, 310.250 462.642 M 342.250 462.662 C 341.563 462.940, 341 464.001, 341 465.020 C 341 466.380, 340.135 466.957, 337.750 467.187 L 334.500 467.500 334.205 474.793 L 333.911 482.086 341.705 481.793 C 348.924 481.522, 349.524 481.334, 349.820 479.250 C 350.025 477.804, 350.829 477, 352.070 477 C 353.790 477, 354 476.251, 354 470.125 L 354 463.250 350.875 462.625 C 347.314 461.913, 344.073 461.927, 342.250 462.662 M 49 465.336 C 49 467.432, 49.438 467.664, 53.250 467.586 C 56.927 467.512, 57.543 467.803, 57.820 469.750 C 58.106 471.768, 58.699 472, 63.570 472 C 68.274 472, 69 471.741, 69 470.063 C 69 468.609, 68.190 468.049, 65.750 467.813 C 63.259 467.573, 62.425 466.975, 62.180 465.250 C 61.887 463.183, 61.338 463, 55.430 463 C 49.358 463, 49 463.130, 49 465.336 M 143.290 465 C 143 466.107, 141.926 467, 140.883 467 C 139.290 467, 139 467.770, 139 472 L 139 477 144.930 477 C 150.319 477, 150.890 477.206, 151.180 479.250 C 151.471 481.294, 152.117 481.527, 158.250 481.796 C 164.893 482.087, 165 482.051, 165 479.546 C 165 477.691, 164.472 477, 163.055 477 C 161.444 477, 161.057 476.184, 160.805 472.250 L 160.500 467.500 154.250 467.202 C 148.819 466.944, 148 466.649, 148 464.952 C 148 462.269, 143.993 462.310, 143.290 465 M 79 479.500 C 79 481.790, 79.371 482, 83.430 482 C 87.264 482, 87.904 482.303, 88.180 484.250 C 88.446 486.120, 89.217 486.552, 92.750 486.807 C 96.722 487.095, 97 486.948, 97 484.557 C 97 482.193, 96.660 482, 92.500 482 C 88.367 482, 88 481.796, 88 479.500 C 88 477.204, 87.633 477, 83.500 477 C 79.367 477, 79 477.204, 79 479.500 M 169.506 480.963 C 168.636 486.116, 169.302 487, 174.059 487 C 177.333 487, 178 487.338, 178 489 C 178 490.833, 178.667 491, 186 491 L 194 491 194 486.500 C 194 482.167, 193.889 482, 191 482 C 188.467 482, 188 481.611, 188 479.500 C 188 477.020, 187.927 477, 179.088 477 L 170.176 477 169.506 480.963 M 420.820 479.250 C 420.547 481.170, 419.803 481.545, 415.750 481.805 C 411.461 482.080, 411 482.347, 411 484.555 C 411 486.822, 410.637 487, 406 487 C 401.725 487, 401 487.280, 401 488.933 C 401 491.212, 398.180 492.334, 394.666 491.452 C 392.579 490.928, 392.107 491.213, 391.831 493.162 C 391.546 495.174, 390.804 495.570, 386.500 496 C 382.333 496.417, 381.500 496.833, 381.500 498.500 C 381.500 500.258, 382.167 500.500, 387 500.500 C 391.942 500.500, 392.532 500.272, 392.820 498.250 C 393.089 496.353, 393.755 496, 397.070 496 C 400.595 496, 401 495.743, 401 493.500 C 401 491.071, 401.200 491, 408 491 C 414.268 491, 415 490.796, 415 489.055 C 415 487.444, 415.816 487.057, 419.750 486.805 C 423.770 486.547, 424.548 486.162, 424.813 484.298 C 425.088 482.366, 425.824 482.059, 430.813 481.798 C 435.842 481.534, 436.537 481.240, 436.820 479.250 C 437.128 477.078, 436.863 477, 429.139 477 C 421.604 477, 421.121 477.131, 420.820 479.250 M 204.667 486.667 C 204.300 487.033, 204 488.127, 204 489.097 C 204 490.165, 203.112 490.987, 201.750 491.180 C 200.304 491.386, 199.386 492.304, 199.180 493.750 C 198.873 495.913, 199.153 496, 206.430 496 C 213.838 496, 214 496.054, 214 498.500 L 214 501 255.500 501 C 296.547 501, 297 500.978, 297 498.969 C 297 497.851, 296.325 496.678, 295.500 496.362 C 294.675 496.045, 294 494.965, 294 493.963 C 294 492.833, 293.144 492.018, 291.750 491.820 C 290.304 491.614, 289.386 490.696, 289.180 489.250 C 288.875 487.098, 288.449 487, 279.430 487 C 270.667 487, 270 487.141, 270 489 C 270 490.810, 269.333 491, 263 491 C 256.667 491, 256 490.810, 256 489 C 256 487.207, 255.333 487, 249.570 487 C 243.702 487, 243.111 487.193, 242.820 489.207 C 242.528 491.217, 241.924 491.417, 236 491.457 C 230.138 491.496, 229.470 491.293, 229.200 489.396 C 228.927 487.490, 228.043 487.232, 219.796 486.646 C 208.302 485.830, 205.499 485.834, 204.667 486.667 M 98 489 C 98 490.754, 98.667 491, 103.418 491 C 110.123 491, 112 491.679, 112 494.107 C 112 495.784, 112.799 496, 119 496 C 125.800 496, 126 496.071, 126 498.500 C 126 500.969, 126.105 501, 134.430 501 C 142.412 501, 142.878 501.120, 143.180 503.250 C 143.474 505.315, 144.097 505.524, 150.750 505.794 C 157.702 506.076, 158 506.188, 158 508.544 C 158 510.854, 158.326 511, 163.500 511 C 168.700 511, 169 510.864, 169 508.500 C 169 506.136, 168.700 506, 163.500 506 C 158.300 506, 158 505.864, 158 503.500 C 158 501.056, 157.833 501, 150.500 501 C 143.167 501, 143 500.944, 143 498.500 C 143 496.031, 142.895 496, 134.570 496 C 126.671 496, 126.119 495.862, 125.820 493.820 C 125.523 491.797, 125.013 491.658, 118.750 491.889 C 112.104 492.134, 112 492.098, 112 489.569 C 112 487.055, 111.850 487, 105 487 C 98.667 487, 98 487.190, 98 489 M 302.250 491.662 C 301.563 491.940, 301 493.029, 301 494.083 C 301 495.838, 301.804 496, 310.500 496 C 319.122 496, 320 495.827, 320 494.125 C 320 492.825, 319.042 492.058, 316.875 491.625 C 313.254 490.901, 304.079 490.924, 302.250 491.662 M 485.010 496.892 C 483.244 497.384, 482.895 497.817, 483.808 498.381 C 484.516 498.819, 485.749 498.926, 486.548 498.620 C 488.268 497.960, 488.292 498.102, 487.025 501.435 C 486.368 503.164, 486.387 504, 487.084 504 C 487.653 504, 487.835 504.457, 487.490 505.016 C 487.144 505.575, 486.443 505.774, 485.931 505.457 C 485.419 505.141, 485 505.359, 485 505.941 C 485 506.523, 485.900 507, 487 507 C 488.758 507, 489 506.333, 489 501.500 C 489 498.475, 488.663 496.045, 488.250 496.100 C 487.837 496.155, 486.380 496.511, 485.010 496.892 M 364 503.500 C 364 505.929, 363.800 506, 357 506 C 350.200 506, 350 506.071, 350 508.500 C 350 510.929, 350.200 511, 357 511 C 363.800 511, 364 510.929, 364 508.500 C 364 506.042, 364.133 506, 372 506 C 379.867 506, 380 505.958, 380 503.500 C 380 501.042, 379.867 501, 372 501 C 364.133 501, 364 501.042, 364 503.500 M 486 508.802 C 486 509.371, 485.714 510.661, 485.365 511.668 C 484.777 513.367, 484.839 513.361, 486.214 511.597 C 487.711 509.676, 490.013 510.110, 489.985 512.309 C 489.975 513.036, 489.607 512.927, 489.039 512.029 C 488.527 511.220, 487.848 510.818, 487.530 511.136 C 487.212 511.455, 487.590 512.245, 488.370 512.892 C 489.475 513.809, 490.127 513.730, 491.323 512.535 C 492.167 511.691, 493.414 511, 494.095 511 C 495.796 511, 494.687 510.032, 492.385 509.508 C 491.348 509.272, 489.488 508.784, 488.250 508.423 C 486.943 508.042, 486 508.201, 486 508.802 M 170 513.500 C 170 515.981, 170.067 516, 179 516 C 187.933 516, 188 515.981, 188 513.500 C 188 511.019, 187.933 511, 179 511 C 170.067 511, 170 511.019, 170 513.500 M 323 513.500 C 323 515.971, 322.900 516, 314.500 516 C 306.100 516, 306 516.029, 306 518.500 C 306 520.971, 306.100 521, 314.500 521 C 322.900 521, 323 520.971, 323 518.500 L 323 516 336.441 516 C 343.834 516, 350.135 515.591, 350.444 515.090 C 350.753 514.590, 350.732 513.465, 350.396 512.590 C 349.880 511.246, 347.713 511, 336.393 511 L 323 511 323 513.500 M 443.191 530.924 C 443.380 533.402, 443.688 533.702, 445.207 532.889 C 447.212 531.816, 447.599 530.867, 445.875 531.250 C 445.256 531.388, 444.555 530.970, 444.316 530.322 C 444.066 529.645, 445.077 528.965, 446.691 528.722 C 449.366 528.320, 449.344 528.293, 446.234 528.150 C 443.210 528.011, 442.985 528.217, 443.191 530.924" stroke="none" fill="#263e0f" fill-rule="evenodd"/>
</svg>